# xmcd
#
# Track frame offsets: 
#        150
#        12160
#        31892
#        47557
#        64587
#        86007
#        105432
#        121225
#        134965
#        148530
#
# Disc length: 2239 seconds
#
# Revision: 3
# Processed by: cddbd v1.5.2PL0 Copyright (c) Steve Scherf et al.
# Submitted via: ExactAudioCopy v0.99pb5
#
DISCID=8208bd0a
DTITLE=Restless Heart - The Best Of Restless Heart
DYEAR=1900
DGENRE=Country
TTITLE0=You Can Depend On Me
TTITLE1=Fast Movin' Train
TTITLE2=A Tender Lie
TTITLE3=Wheels
TTITLE4=The Bluest Eyes In Texas
TTITLE5=Familiar Pain
TTITLE6=That Rock Won't Roll
TTITLE7=Til I Love You
TTITLE8=Why Does It Have To Be (Wrong Or Right)
TTITLE9=I'll Still Be Loving You
EXTD=
EXTT0=
EXTT1=
EXTT2=
EXTT3=
EXTT4=
EXTT5=
EXTT6=
EXTT7=
EXTT8=
EXTT9=
PLAYORDER=
